<?xml version="1.0" encoding="utf-8"?>
<svg xmlns="http://www.w3.org/2000/svg" style="margin: auto; background: rgb(178, 211, 168); display: block; shape-rendering: auto;" width="280" height="250" preserveAspectRatio="xMidYMid">
<style type="text/css">
  text {
    text-anchor: middle; font-size: 94px; opacity: 0;
  }
</style>
<g style="transform-origin: 140px 125px; transform: scale(1.175);">
<g transform="translate(140,125)">
  <g transform="translate(0,0)"><g class="path" style="transform: scale(0.91); transform-origin: -70.64px -4.8216px; animation: 1s linear -0.55s infinite normal forwards running breath-52310740-7c23-4618-8fd0-d475750b599f;"><path d="M19.28 0.72L19.28 0.72L19.28 0.72Q14.24 0.72 11.92-2.64L11.92-2.64L5.20 2.16L3.68 2.16L12.64-50.24L12.64-50.24Q10.24-50 8.64-48L8.64-48L7.44-48.96L7.44-48.96Q9.84-51.84 13.48-51.84L13.48-51.84L13.48-51.84Q17.12-51.84 19.12-50L19.12-50L19.12-50Q21.12-48.16 21.12-44.80L21.12-44.80L21.12-44.80Q21.12-44.16 20.96-42.72L20.96-42.72L20.96-42.72Q19.68-35.60 17.84-25.60L17.84-25.60L17.84-25.60Q21.20-31.04 26.56-31.04L26.56-31.04L26.56-31.04Q31.92-31.04 34.80-27.96L34.80-27.96L34.80-27.96Q37.68-24.88 37.68-19.52L37.68-19.52L37.68-19.52Q37.68-10.08 32.56-4.68L32.56-4.68L32.56-4.68Q27.44 0.72 19.28 0.72zM18.72-1.44L18.72-1.44L18.72-1.44Q23.12-1.44 25.88-7.56L25.88-7.56L25.88-7.56Q28.64-13.68 28.64-22.80L28.64-22.80L28.64-22.80Q28.64-26.48 27.88-27.84L27.88-27.84L27.88-27.84Q27.12-29.20 25.12-29.20L25.12-29.20L25.12-29.20Q23.12-29.20 21-26.80L21-26.80L21-26.80Q18.88-24.40 17.92-22.28L17.92-22.28L17.92-22.28Q16.96-20.16 16.96-19.84L16.96-19.84L16.80-19.84L16.80-19.84Q14.80-9.36 13.84-4L13.84-4L13.84-4Q15.20-1.44 18.72-1.44" fill="#000000" stroke="none" stroke-width="none" transform="translate(-91.32003784179688,20.018399149576815)" style="fill: rgb(0, 0, 0);"></path></g><g class="path" style="transform: scale(0.91); transform-origin: -35.96px 4.8184px; animation: 1s linear -0.44s infinite normal forwards running breath-52310740-7c23-4618-8fd0-d475750b599f;"><path d="M58.88-31.12L58.88-31.12L58.88-31.12Q69.04-31.12 69.04-23.04L69.04-23.04L69.04-23.04Q69.04-18 64.28-15.40L64.28-15.40L64.28-15.40Q59.52-12.80 50.72-12.72L50.72-12.72L50.72-12.72Q50.56-9.84 50.56-8.16L50.56-8.16L50.56-8.16Q50.56-4.56 52.20-2.84L52.20-2.84L52.20-2.84Q53.84-1.12 56.32-1.12L56.32-1.12L56.32-1.12Q58.80-1.12 60.84-2.08L60.84-2.08L60.84-2.08Q62.88-3.04 64.08-4.36L64.08-4.36L64.08-4.36Q65.28-5.68 66.16-7.12L66.16-7.12L66.16-7.12Q67.76-9.76 67.76-10.48L67.76-10.48L69.20-9.84L69.20-9.84Q68.96-8.56 67.76-6.44L67.76-6.44L67.76-6.44Q66.56-4.32 65.12-2.96L65.12-2.96L65.12-2.96Q63.68-1.60 60.88-0.44L60.88-0.44L60.88-0.44Q58.08 0.72 54.64 0.72L54.64 0.72L54.64 0.72Q48.16 0.72 44.84-2.36L44.84-2.36L44.84-2.36Q41.52-5.44 41.52-10.80L41.52-10.80L41.52-10.80Q41.52-20.32 46.24-25.72L46.24-25.72L46.24-25.72Q50.96-31.12 58.88-31.12zM67.04-23.04L67.04-23.04Q67.04-25.68 65.48-27.40L65.48-27.40L65.48-27.40Q63.92-29.12 60.84-29.12L60.84-29.12L60.84-29.12Q57.76-29.12 54.84-25.44L54.84-25.44L54.84-25.44Q51.92-21.76 50.96-14.56L50.96-14.56L50.96-14.56Q67.04-14.64 67.04-23.04L67.04-23.04" fill="#000000" stroke="none" stroke-width="none" transform="translate(-91.32003784179688,20.018399149576815)" style="fill: rgb(0, 0, 0);"></path></g><g class="path" style="transform: scale(0.91); transform-origin: -5.40004px -1.1016px; animation: 1s linear -0.33s infinite normal forwards running breath-52310740-7c23-4618-8fd0-d475750b599f;"><path d="M74.24-30.40L78.32-30.40L80.48-42.24L80.48-42.24Q86.40-42.24 89.28-42.72L89.28-42.72L90.32-42.96L90.32-42.96Q89.20-37.36 87.84-30.40L87.84-30.40L97.76-30.40L97.60-28.96L87.60-28.96L87.60-28.96Q83.60-8.32 83.60-4.08L83.60-4.08L83.60-4.08Q83.60-1.52 86.32-1.52L86.32-1.52L86.32-1.52Q89.04-1.52 91.28-4.96L91.28-4.96L91.28-4.96Q93.52-8.40 94.48-12.40L94.48-12.40L95.92-11.92L95.92-11.92Q92.96 0.72 83.68 0.72L83.68 0.72L83.68 0.72Q79.84 0.72 77.28-1.40L77.28-1.40L77.28-1.40Q74.72-3.52 74.72-7.32L74.72-7.32L74.72-7.32Q74.72-11.12 78-28.96L78-28.96L74.08-28.96L74.24-30.40" fill="#000000" stroke="none" stroke-width="none" transform="translate(-91.32003784179688,20.018399149576815)" style="fill: rgb(0, 0, 0);"></path></g><g class="path" style="transform: scale(0.91); transform-origin: 20.36px -1.1016px; animation: 1s linear -0.22s infinite normal forwards running breath-52310740-7c23-4618-8fd0-d475750b599f;"><path d="M100-30.40L104.08-30.40L106.24-42.24L106.24-42.24Q112.16-42.24 115.04-42.72L115.04-42.72L116.08-42.96L116.08-42.96Q114.96-37.36 113.60-30.40L113.60-30.40L123.52-30.40L123.36-28.96L113.36-28.96L113.36-28.96Q109.36-8.32 109.36-4.08L109.36-4.08L109.36-4.08Q109.36-1.52 112.08-1.52L112.08-1.52L112.08-1.52Q114.80-1.52 117.04-4.96L117.04-4.96L117.04-4.96Q119.28-8.40 120.24-12.40L120.24-12.40L121.68-11.92L121.68-11.92Q118.72 0.72 109.44 0.72L109.44 0.72L109.44 0.72Q105.60 0.72 103.04-1.40L103.04-1.40L103.04-1.40Q100.48-3.52 100.48-7.32L100.48-7.32L100.48-7.32Q100.48-11.12 103.76-28.96L103.76-28.96L99.84-28.96L100-30.40" fill="#000000" stroke="none" stroke-width="none" transform="translate(-91.32003784179688,20.018399149576815)" style="fill: rgb(0, 0, 0);"></path></g><g class="path" style="transform: scale(0.91); transform-origin: 47.32px 4.8184px; animation: 1s linear -0.11s infinite normal forwards running breath-52310740-7c23-4618-8fd0-d475750b599f;"><path d="M142.16-31.12L142.16-31.12L142.16-31.12Q152.32-31.12 152.32-23.04L152.32-23.04L152.32-23.04Q152.32-18 147.56-15.40L147.56-15.40L147.56-15.40Q142.80-12.80 134-12.72L134-12.72L134-12.72Q133.84-9.84 133.84-8.16L133.84-8.16L133.84-8.16Q133.84-4.56 135.48-2.84L135.48-2.84L135.48-2.84Q137.12-1.12 139.60-1.12L139.60-1.12L139.60-1.12Q142.08-1.12 144.12-2.08L144.12-2.08L144.12-2.08Q146.16-3.04 147.36-4.36L147.36-4.36L147.36-4.36Q148.56-5.68 149.44-7.12L149.44-7.12L149.44-7.12Q151.04-9.76 151.04-10.48L151.04-10.48L152.48-9.84L152.48-9.84Q152.24-8.56 151.04-6.44L151.04-6.44L151.04-6.44Q149.84-4.32 148.40-2.96L148.40-2.96L148.40-2.96Q146.96-1.60 144.16-0.44L144.16-0.44L144.16-0.44Q141.36 0.72 137.92 0.72L137.92 0.72L137.92 0.72Q131.44 0.72 128.12-2.36L128.12-2.36L128.12-2.36Q124.80-5.44 124.80-10.80L124.80-10.80L124.80-10.80Q124.80-20.32 129.52-25.72L129.52-25.72L129.52-25.72Q134.24-31.12 142.16-31.12zM150.32-23.04L150.32-23.04Q150.32-25.68 148.76-27.40L148.76-27.40L148.76-27.40Q147.20-29.12 144.12-29.12L144.12-29.12L144.12-29.12Q141.04-29.12 138.12-25.44L138.12-25.44L138.12-25.44Q135.20-21.76 134.24-14.56L134.24-14.56L134.24-14.56Q150.32-14.64 150.32-23.04L150.32-23.04" fill="#000000" stroke="none" stroke-width="none" transform="translate(-91.32003784179688,20.018399149576815)" style="fill: rgb(0, 0, 0);"></path></g><g class="path" style="transform: scale(0.91); transform-origin: 80.36px 4.4584px; animation: 1s linear 0s infinite normal forwards running breath-52310740-7c23-4618-8fd0-d475750b599f;"><path d="M158.32-27.28L157.12-28.24L157.12-28.24Q159.52-31.12 163.16-31.12L163.16-31.12L163.16-31.12Q166.80-31.12 168.80-29.28L168.80-29.28L168.80-29.28Q170.80-27.44 170.80-24.08L170.80-24.08L170.80-23.60L170.80-23.60Q174.40-31.12 180.16-31.12L180.16-31.12L180.16-31.12Q186.32-31.12 186.32-24.72L186.32-24.72L186.32-24.72Q186.32-22.08 184.56-19.12L184.56-19.12L184.56-19.12Q182.80-16.16 181.04-13.48L181.04-13.48L181.04-13.48Q179.28-10.80 179.28-8.72L179.28-8.72L177.36-8.72L177.36-8.72Q177.36-11.68 180.80-16.72L180.80-16.72L180.80-16.72Q184.24-21.76 184.24-24.52L184.24-24.52L184.24-24.52Q184.24-27.28 183.16-28.28L183.16-28.28L183.16-28.28Q182.08-29.28 179.96-29.28L179.96-29.28L179.96-29.28Q177.84-29.28 175.80-27.44L175.80-27.44L175.80-27.44Q173.76-25.60 172.40-22.80L172.40-22.80L172.40-22.80Q170.24-18.64 169.52-16L169.52-16L169.52-15.92L166.64 0L157.04 0L162.32-29.52L162.32-29.52Q159.92-29.28 158.32-27.28L158.32-27.28" fill="#000000" stroke="none" stroke-width="none" transform="translate(-91.32003784179688,20.018399149576815)" style="fill: rgb(0, 0, 0);"></path></g></g>
</g>
</g>
<style id="breath-52310740-7c23-4618-8fd0-d475750b599f" data-anikit="">@keyframes breath-52310740-7c23-4618-8fd0-d475750b599f
{
  0% {
    animation-timing-function: cubic-bezier(0.9647,0.2413,-0.0705,0.7911);
    transform: scale(0.9099999999999999);
  }
  51% {
    animation-timing-function: cubic-bezier(0.9226,0.2631,-0.0308,0.7628);
    transform: scale(1.02994);
  }
  100% {
    transform: scale(0.9099999999999999);
  }
}</style></svg>